<?xml version="1.0" standalone="no"?>
<!DOCTYPE svg PUBLIC "-//W3C//DTD SVG 20010904//EN"
 "http://www.w3.org/TR/2001/REC-SVG-20010904/DTD/svg10.dtd">
<svg version="1.0" xmlns="http://www.w3.org/2000/svg"
 width="512.000000pt" height="512.000000pt" viewBox="0 0 512.000000 512.000000"
 preserveAspectRatio="xMidYMid meet">

<g transform="translate(0.000000,512.000000) scale(0.100000,-0.100000)"
fill="#000000" stroke="none">
<path d="M2302 3905 c-29 -8 -66 -22 -84 -31 -17 -9 -203 -145 -412 -303
l-381 -286 -195 -6 c-169 -5 -202 -8 -250 -27 -116 -46 -208 -146 -241 -259
-20 -70 -20 -796 0 -866 33 -113 125 -213 241 -259 48 -19 81 -22 250 -27
l195 -6 390 -293 c265 -199 407 -299 445 -314 77 -30 203 -30 280 0 80 32 146
85 189 152 69 107 66 46 66 1185 0 1145 4 1072 -67 1180 -87 131 -276 202
-426 160z m224 -181 c30 -18 60 -48 79 -78 l30 -49 0 -1037 0 -1037 -30 -49
c-57 -92 -180 -137 -280 -104 -21 7 -216 146 -434 309 -218 163 -403 301 -411
306 -8 6 -110 12 -226 15 l-211 5 -49 30 c-30 19 -60 49 -79 79 l-30 49 0 397
0 397 30 49 c19 30 49 60 79 79 l49 30 211 5 c116 3 218 9 226 14 8 6 186 138
395 295 209 157 400 296 425 309 65 34 158 28 226 -14z"/>
<path d="M3037 3674 c-4 -4 -7 -17 -7 -28 0 -12 109 -246 241 -521 133 -275
241 -504 241 -510 0 -5 -133 -290 -297 -633 -180 -379 -295 -631 -293 -645 2
-17 10 -22 33 -22 30 0 32 4 315 598 156 328 287 597 290 597 4 0 134 -267
291 -592 282 -587 285 -593 314 -593 25 0 30 5 33 25 1 16 -102 242 -294 640
-163 338 -296 620 -296 625 -1 6 106 233 236 505 153 320 236 504 234 520 -2
20 -8 25 -33 25 -29 0 -32 -6 -254 -472 -124 -260 -228 -473 -231 -473 -3 0
-109 215 -236 478 -207 431 -232 477 -254 480 -14 2 -29 0 -33 -4z"/>
</g>
</svg>
